<?xml version="1.0" encoding="UTF-8" standalone="no"?>
<!DOCTYPE svg PUBLIC "-//W3C//DTD SVG 1.1//EN" "http://www.w3.org/Graphics/SVG/1.1/DTD/svg11.dtd">
<svg xmlns="http://www.w3.org/2000/svg" version="1.1" viewBox="0.00 0.00 1500.00 499.00">
<g stroke-width="2.00" fill="none" stroke-linecap="butt">
<path stroke="#8d8f90" vector-effect="non-scaling-stroke" d="
  M 866.52 352.26
  A 0.44 0.44 0.0 0 0 866.95 351.92
  L 874.36 318.48
  A 0.44 0.44 0.0 0 1 874.79 318.14
  L 909.20 318.07
  A 0.44 0.44 0.0 0 1 909.63 318.42
  L 917.04 351.94
  A 0.44 0.44 0.0 0 0 917.48 352.29
  L 954.23 351.97
  A 0.44 0.44 0.0 0 0 954.66 351.44
  L 907.49 147.19
  A 0.44 0.44 0.0 0 0 907.06 146.85
  L 877.77 146.84
  A 0.44 0.44 0.0 0 0 877.34 147.18
  L 829.73 351.72
  A 0.44 0.44 0.0 0 0 830.15 352.26
  L 866.52 352.26"
/>
<path stroke="#8d8f90" vector-effect="non-scaling-stroke" d="
  M 779.35 253.00
  L 781.29 351.66
  Q 781.31 352.26 781.91 352.26
  L 818.03 352.26
  Q 818.56 352.26 818.55 351.72
  L 813.54 148.75
  A 1.33 1.33 0.0 0 0 812.24 147.45
  L 793.71 147.00
  A 0.98 0.98 0.0 0 0 792.78 147.60
  L 750.61 246.31
  A 0.32 0.32 0.0 0 1 750.03 246.31
  L 705.92 147.57
  Q 705.66 146.98 705.02 147.00
  L 685.46 147.49
  Q 685.17 147.49 685.17 147.78
  L 680.42 351.96
  A 0.29 0.29 0.0 0 0 680.71 352.26
  L 716.95 352.26
  Q 717.41 352.26 717.42 351.80
  L 719.04 253.55
  Q 719.07 251.80 719.75 253.42
  L 745.94 315.81
  Q 746.11 316.22 746.56 316.22
  L 753.05 316.22
  A 0.96 0.95 -79.2 0 0 753.94 315.61
  L 778.91 252.92
  Q 779.33 251.86 779.35 253.00"
/>
<path stroke="#8d8f90" vector-effect="non-scaling-stroke" d="
  M 464.78 317.02
  A 0.37 0.37 0.0 0 0 464.41 316.65
  L 421.60 316.64
  A 0.37 0.37 0.0 0 1 421.23 316.27
  L 421.23 147.61
  A 0.37 0.37 0.0 0 0 420.86 147.24
  L 382.87 147.24
  A 0.37 0.37 0.0 0 0 382.50 147.61
  L 382.50 351.89
  A 0.37 0.37 0.0 0 0 382.87 352.26
  L 464.41 352.26
  A 0.37 0.37 0.0 0 0 464.78 351.89
  L 464.78 317.02"
/>
<path stroke="#8d8f90" vector-effect="non-scaling-stroke" d="
  M 520.18 316.64
  A 0.36 0.36 0.0 0 1 519.82 316.28
  L 519.82 147.60
  A 0.36 0.36 0.0 0 0 519.46 147.24
  L 481.57 147.24
  A 0.36 0.36 0.0 0 0 481.21 147.60
  L 481.21 351.90
  A 0.36 0.36 0.0 0 0 481.57 352.26
  L 563.13 352.26
  A 0.36 0.36 0.0 0 0 563.49 351.90
  L 563.49 317.01
  A 0.36 0.36 0.0 0 0 563.13 316.65
  L 520.18 316.64"
/>
<path stroke="#8d512b" vector-effect="non-scaling-stroke" d="
  M 1036.85 159.20
  C 1012.56 156.81 999.81 177.86 995.03 198.63
  C 991.48 214.06 990.48 229.05 990.47 244.50
  A 0.41 0.41 0.0 0 0 991.18 244.78
  C 1002.56 232.76 1016.24 224.01 1032.11 219.27
  A 0.70 0.70 0.0 0 0 1032.48 218.20
  C 1026.52 209.73 1022.80 198.50 1027.69 188.47
  Q 1032.41 178.81 1037.27 168.91
  Q 1039.05 165.28 1039.05 161.61
  A 2.43 2.43 0.0 0 0 1036.85 159.20"
/>
<path stroke="#8d512b" vector-effect="non-scaling-stroke" d="
  M 1064.33 171.84
  C 1047.72 177.67 1040.56 201.91 1038.03 217.43
  Q 1037.95 217.95 1038.46 217.84
  Q 1055.36 214.24 1072.68 216.72
  A 0.30 0.30 0.0 0 0 1072.98 216.26
  C 1069.42 210.33 1066.46 203.12 1068.06 196.31
  Q 1068.85 192.97 1072.81 187.68
  C 1075.55 184.03 1078.97 179.60 1081.19 175.22
  C 1082.03 173.56 1081.18 171.58 1079.38 171.14
  Q 1071.63 169.28 1064.33 171.84"
/>
<path stroke="#8d512b" vector-effect="non-scaling-stroke" d="
  M 1281.84 197.63
  L 1285.48 197.50
  Q 1286.66 197.45 1286.66 196.27
  L 1286.68 192.71
  Q 1286.69 191.47 1285.45 191.47
  L 1279.28 191.46
  Q 1278.86 191.45 1278.88 191.03
  L 1278.94 189.91
  Q 1278.96 189.52 1279.35 189.52
  L 1284.96 189.50
  Q 1286.66 189.49 1286.67 187.79
  L 1286.69 185.07
  Q 1286.70 183.69 1285.32 183.70
  L 1280.49 183.71
  Q 1278.33 183.72 1278.83 181.61
  Q 1279.82 177.46 1276.41 177.46
  Q 1275.03 177.46 1273.63 177.55
  Q 1272.86 177.61 1272.86 176.83
  L 1272.86 170.49
  Q 1272.86 170.18 1272.55 170.19
  L 1267.52 170.24
  Q 1267.29 170.24 1267.29 170.48
  L 1267.28 177.02
  Q 1267.28 177.57 1266.73 177.56
  L 1265.74 177.54
  A 0.56 0.55 89.5 0 1 1265.19 176.99
  L 1265.11 170.78
  Q 1265.11 170.21 1264.53 170.21
  L 1259.78 170.21
  Q 1259.27 170.21 1259.27 170.72
  L 1259.26 177.01
  Q 1259.26 177.54 1258.74 177.52
  L 1257.47 177.49
  Q 1256.96 177.47 1256.96 176.97
  L 1256.93 170.56
  A 0.37 0.37 0.0 0 0 1256.56 170.19
  L 1251.74 170.22
  Q 1251.39 170.23 1251.39 170.58
  L 1251.41 177.22
  Q 1251.41 177.72 1250.92 177.65
  Q 1249.29 177.45 1247.64 177.47
  C 1244.32 177.52 1245.36 181.09 1245.37 183.19
  A 0.53 0.53 0.0 0 1 1244.84 183.73
  L 1238.52 183.72
  Q 1238.02 183.72 1238.02 184.23
  L 1238.04 189.02
  Q 1238.04 189.50 1238.52 189.50
  L 1245.02 189.48
  Q 1245.40 189.48 1245.39 189.86
  L 1245.36 191.01
  Q 1245.34 191.49 1244.86 191.49
  L 1238.27 191.49
  Q 1238.03 191.49 1238.03 191.73
  L 1238.04 197.17
  A 0.39 0.39 0.0 0 0 1238.43 197.56
  L 1244.94 197.51
  Q 1245.37 197.51 1245.37 197.94
  L 1245.36 199.14
  Q 1245.36 199.52 1244.98 199.52
  L 1238.51 199.50
  A 0.48 0.48 0.0 0 0 1238.03 199.99
  L 1238.05 204.97
  A 0.45 0.45 0.0 0 0 1238.50 205.42
  L 1244.76 205.40
  Q 1245.35 205.40 1245.34 205.99
  L 1245.32 209.80
  A 1.50 1.50 0.0 0 0 1246.80 211.31
  L 1250.88 211.34
  Q 1251.42 211.35 1251.41 211.88
  L 1251.39 218.47
  Q 1251.39 218.78 1251.71 218.78
  L 1256.56 218.78
  Q 1256.94 218.78 1256.94 218.41
  L 1256.94 211.94
  Q 1256.94 211.57 1257.31 211.53
  L 1258.78 211.35
  A 0.44 0.43 -3.5 0 1 1259.27 211.78
  L 1259.27 218.41
  Q 1259.27 218.80 1259.66 218.80
  L 1264.56 218.77
  A 0.57 0.57 0.0 0 0 1265.13 218.19
  L 1265.09 212.21
  Q 1265.09 211.50 1265.79 211.40
  L 1266.73 211.26
  Q 1267.28 211.18 1267.28 211.74
  L 1267.29 218.54
  Q 1267.29 218.78 1267.54 218.78
  L 1272.52 218.78
  A 0.35 0.35 0.0 0 0 1272.87 218.43
  L 1272.85 212.05
  Q 1272.85 211.45 1273.45 211.43
  L 1277.48 211.30
  A 1.51 1.50 88.6 0 0 1278.93 209.77
  L 1278.88 206.05
  Q 1278.87 205.48 1279.45 205.47
  L 1285.03 205.38
  Q 1286.66 205.35 1286.67 203.72
  L 1286.69 200.97
  Q 1286.70 199.49 1285.22 199.50
  L 1281.73 199.52
  A 0.27 0.27 0.0 0 1 1281.46 199.23
  L 1281.56 197.91
  Q 1281.58 197.64 1281.84 197.63"
/>
<path stroke="#8d8f90" vector-effect="non-scaling-stroke" d="
  M 628.73 340.04
  L 628.74 351.75
  A 0.51 0.51 0.0 0 0 629.25 352.26
  L 660.73 352.26
  A 0.51 0.51 0.0 0 0 661.24 351.75
  Q 661.26 306.70 661.24 259.87
  C 661.23 252.71 660.65 245.22 658.01 238.50
  C 652.60 224.75 640.08 218.95 626.03 217.49
  Q 604.47 215.25 583.71 222.97
  Q 583.19 223.17 583.25 223.73
  L 586.41 251.02
  Q 586.55 252.30 587.78 251.91
  C 597.86 248.70 608.03 246.51 618.03 248.55
  Q 626.35 250.25 626.88 259.75
  Q 627.25 266.21 626.98 273.72
  Q 626.96 274.13 626.61 273.92
  Q 615.95 267.43 603.30 268.54
  C 588.28 269.85 578.63 281.66 574.84 295.54
  Q 571.36 308.29 573.43 322.56
  C 574.84 332.25 579.02 342.15 586.55 348.39
  C 600.41 359.87 618.45 352.64 628.12 339.83
  Q 628.73 339.03 628.73 340.04"
/>
<path stroke="#8d512b" vector-effect="non-scaling-stroke" d="
  M 1055.13 320.72
  Q 1054.93 320.22 1054.82 319.70
  Q 1054.71 319.14 1054.23 319.45
  Q 1052.26 320.72 1050.50 322.05
  C 1045.09 326.13 1038.20 328.65 1031.09 328.38
  C 1023.17 328.08 1017.71 322.11 1015.33 314.99
  Q 1013.67 310.00 1013.60 303.92
  Q 1013.44 288.58 1020.10 273.84
  C 1024.50 264.12 1031.49 255.42 1041.88 252.20
  Q 1047.96 250.31 1052.66 251.70
  Q 1058.60 253.46 1061.61 258.67
  Q 1061.78 258.97 1062.02 258.72
  Q 1069.45 250.77 1077.10 242.85
  Q 1079.24 240.63 1080.95 238.49
  A 1.05 1.05 0.0 0 0 1080.92 237.15
  Q 1071.31 226.29 1056.96 225.17
  Q 1043.96 224.16 1032.25 228.16
  C 1005.25 237.38 987.26 261.46 981.68 288.86
  Q 979.79 298.15 979.55 306.31
  Q 979.30 314.99 981.48 323.59
  C 987.38 346.91 1007.16 357.14 1030.01 354.72
  Q 1045.79 353.05 1060.21 342.77
  Q 1061.57 341.80 1062.69 340.70
  A 0.70 0.70 0.0 0 0 1062.85 339.93
  Q 1058.87 330.26 1055.13 320.72"
/>
<path stroke="#8d512b" vector-effect="non-scaling-stroke" d="
  M 1141.17 337.81
  Q 1141.29 344.47 1140.53 351.72
  A 0.26 0.25 3.0 0 0 1140.79 352.00
  L 1166.24 352.00
  A 0.97 0.96 5.4 0 0 1167.19 351.22
  L 1191.73 228.53
  Q 1191.83 228.00 1191.29 228.00
  L 1159.27 228.00
  Q 1158.73 228.00 1158.63 228.53
  Q 1149.87 272.48 1141.89 312.40
  Q 1141.43 314.69 1140.04 316.63
  Q 1135.64 322.78 1130.84 325.77
  Q 1127.52 327.84 1123.03 327.43
  C 1114.56 326.67 1117.07 315.25 1118.08 310.06
  Q 1125.97 269.75 1134.30 228.63
  Q 1134.43 228.00 1133.78 228.00
  L 1102.03 228.00
  Q 1101.55 228.00 1101.46 228.47
  Q 1092.94 270.89 1084.49 313.46
  Q 1081.88 326.63 1083.44 337.15
  Q 1086.05 354.66 1104.68 355.03
  C 1119.27 355.31 1130.59 347.53 1140.61 337.58
  A 0.33 0.33 0.0 0 1 1141.17 337.81"
/>
<path stroke="#8d512b" vector-effect="non-scaling-stroke" d="
  M 1275.11 228.42
  A 0.34 0.34 0.0 0 0 1274.78 228.01
  L 1242.65 227.99
  A 0.34 0.34 0.0 0 0 1242.32 228.26
  L 1217.65 351.60
  A 0.34 0.34 0.0 0 0 1217.98 352.01
  L 1250.12 352.00
  A 0.34 0.34 0.0 0 0 1250.45 351.73
  L 1275.11 228.42"
/>
<path stroke="#8d8f90" vector-effect="non-scaling-stroke" d="
  M 881.34 283.58
  A 0.35 0.35 0.0 0 0 881.69 283.99
  L 902.31 283.99
  A 0.35 0.35 0.0 0 0 902.66 283.58
  L 892.34 225.56
  A 0.35 0.35 0.0 0 0 891.66 225.56
  L 881.34 283.58"
/>
<path stroke="#8d512b" vector-effect="non-scaling-stroke" d="
  M 1268.0106 189.0301
  A 0.27 0.27 0.0 0 0 1267.7401 188.7606
  L 1256.9801 188.7794
  A 0.27 0.27 0.0 0 0 1256.7106 189.0499
  L 1256.7294 199.8499
  A 0.27 0.27 0.0 0 0 1256.9999 200.1194
  L 1267.7599 200.1006
  A 0.27 0.27 0.0 0 0 1268.0294 199.8301
  L 1268.0106 189.0301"
/>
<path stroke="#8d8f90" vector-effect="non-scaling-stroke" d="
  M 626.62 325.88
  A 0.70 0.69 -11.5 0 0 627.05 325.24
  L 627.05 292.80
  Q 627.05 291.60 625.91 291.19
  Q 620.85 289.37 615.64 290.17
  C 609.18 291.16 606.58 298.34 606.07 304.21
  C 605.36 312.37 605.97 326.93 617.51 327.48
  Q 622.40 327.71 626.62 325.88"
/>
</g>
<path fill="#1b1f20" d="
  M 21.56 0.00
  L 1480.34 0.00
  C 1488.74 0.55 1496.00 1.77 1498.71 10.99
  Q 1499.78 14.64 1500.00 18.55
  L 1500.00 481.55
  Q 1499.59 484.40 1499.11 487.23
  Q 1497.46 497.02 1487.97 499.00
  L 13.69 499.00
  C 1.97 498.25 0.65 488.86 0.00 479.40
  L 0.00 19.98
  Q 0.43 14.65 1.02 11.98
  C 3.44 1.07 12.28 0.56 21.56 0.00
  Z
  M 866.52 352.26
  A 0.44 0.44 0.0 0 0 866.95 351.92
  L 874.36 318.48
  A 0.44 0.44 0.0 0 1 874.79 318.14
  L 909.20 318.07
  A 0.44 0.44 0.0 0 1 909.63 318.42
  L 917.04 351.94
  A 0.44 0.44 0.0 0 0 917.48 352.29
  L 954.23 351.97
  A 0.44 0.44 0.0 0 0 954.66 351.44
  L 907.49 147.19
  A 0.44 0.44 0.0 0 0 907.06 146.85
  L 877.77 146.84
  A 0.44 0.44 0.0 0 0 877.34 147.18
  L 829.73 351.72
  A 0.44 0.44 0.0 0 0 830.15 352.26
  L 866.52 352.26
  Z
  M 779.35 253.00
  L 781.29 351.66
  Q 781.31 352.26 781.91 352.26
  L 818.03 352.26
  Q 818.56 352.26 818.55 351.72
  L 813.54 148.75
  A 1.33 1.33 0.0 0 0 812.24 147.45
  L 793.71 147.00
  A 0.98 0.98 0.0 0 0 792.78 147.60
  L 750.61 246.31
  A 0.32 0.32 0.0 0 1 750.03 246.31
  L 705.92 147.57
  Q 705.66 146.98 705.02 147.00
  L 685.46 147.49
  Q 685.17 147.49 685.17 147.78
  L 680.42 351.96
  A 0.29 0.29 0.0 0 0 680.71 352.26
  L 716.95 352.26
  Q 717.41 352.26 717.42 351.80
  L 719.04 253.55
  Q 719.07 251.80 719.75 253.42
  L 745.94 315.81
  Q 746.11 316.22 746.56 316.22
  L 753.05 316.22
  A 0.96 0.95 -79.2 0 0 753.94 315.61
  L 778.91 252.92
  Q 779.33 251.86 779.35 253.00
  Z
  M 464.78 317.02
  A 0.37 0.37 0.0 0 0 464.41 316.65
  L 421.60 316.64
  A 0.37 0.37 0.0 0 1 421.23 316.27
  L 421.23 147.61
  A 0.37 0.37 0.0 0 0 420.86 147.24
  L 382.87 147.24
  A 0.37 0.37 0.0 0 0 382.50 147.61
  L 382.50 351.89
  A 0.37 0.37 0.0 0 0 382.87 352.26
  L 464.41 352.26
  A 0.37 0.37 0.0 0 0 464.78 351.89
  L 464.78 317.02
  Z
  M 520.18 316.64
  A 0.36 0.36 0.0 0 1 519.82 316.28
  L 519.82 147.60
  A 0.36 0.36 0.0 0 0 519.46 147.24
  L 481.57 147.24
  A 0.36 0.36 0.0 0 0 481.21 147.60
  L 481.21 351.90
  A 0.36 0.36 0.0 0 0 481.57 352.26
  L 563.13 352.26
  A 0.36 0.36 0.0 0 0 563.49 351.90
  L 563.49 317.01
  A 0.36 0.36 0.0 0 0 563.13 316.65
  L 520.18 316.64
  Z
  M 1036.85 159.20
  C 1012.56 156.81 999.81 177.86 995.03 198.63
  C 991.48 214.06 990.48 229.05 990.47 244.50
  A 0.41 0.41 0.0 0 0 991.18 244.78
  C 1002.56 232.76 1016.24 224.01 1032.11 219.27
  A 0.70 0.70 0.0 0 0 1032.48 218.20
  C 1026.52 209.73 1022.80 198.50 1027.69 188.47
  Q 1032.41 178.81 1037.27 168.91
  Q 1039.05 165.28 1039.05 161.61
  A 2.43 2.43 0.0 0 0 1036.85 159.20
  Z
  M 1064.33 171.84
  C 1047.72 177.67 1040.56 201.91 1038.03 217.43
  Q 1037.95 217.95 1038.46 217.84
  Q 1055.36 214.24 1072.68 216.72
  A 0.30 0.30 0.0 0 0 1072.98 216.26
  C 1069.42 210.33 1066.46 203.12 1068.06 196.31
  Q 1068.85 192.97 1072.81 187.68
  C 1075.55 184.03 1078.97 179.60 1081.19 175.22
  C 1082.03 173.56 1081.18 171.58 1079.38 171.14
  Q 1071.63 169.28 1064.33 171.84
  Z
  M 1281.84 197.63
  L 1285.48 197.50
  Q 1286.66 197.45 1286.66 196.27
  L 1286.68 192.71
  Q 1286.69 191.47 1285.45 191.47
  L 1279.28 191.46
  Q 1278.86 191.45 1278.88 191.03
  L 1278.94 189.91
  Q 1278.96 189.52 1279.35 189.52
  L 1284.96 189.50
  Q 1286.66 189.49 1286.67 187.79
  L 1286.69 185.07
  Q 1286.70 183.69 1285.32 183.70
  L 1280.49 183.71
  Q 1278.33 183.72 1278.83 181.61
  Q 1279.82 177.46 1276.41 177.46
  Q 1275.03 177.46 1273.63 177.55
  Q 1272.86 177.61 1272.86 176.83
  L 1272.86 170.49
  Q 1272.86 170.18 1272.55 170.19
  L 1267.52 170.24
  Q 1267.29 170.24 1267.29 170.48
  L 1267.28 177.02
  Q 1267.28 177.57 1266.73 177.56
  L 1265.74 177.54
  A 0.56 0.55 89.5 0 1 1265.19 176.99
  L 1265.11 170.78
  Q 1265.11 170.21 1264.53 170.21
  L 1259.78 170.21
  Q 1259.27 170.21 1259.27 170.72
  L 1259.26 177.01
  Q 1259.26 177.54 1258.74 177.52
  L 1257.47 177.49
  Q 1256.96 177.47 1256.96 176.97
  L 1256.93 170.56
  A 0.37 0.37 0.0 0 0 1256.56 170.19
  L 1251.74 170.22
  Q 1251.39 170.23 1251.39 170.58
  L 1251.41 177.22
  Q 1251.41 177.72 1250.92 177.65
  Q 1249.29 177.45 1247.64 177.47
  C 1244.32 177.52 1245.36 181.09 1245.37 183.19
  A 0.53 0.53 0.0 0 1 1244.84 183.73
  L 1238.52 183.72
  Q 1238.02 183.72 1238.02 184.23
  L 1238.04 189.02
  Q 1238.04 189.50 1238.52 189.50
  L 1245.02 189.48
  Q 1245.40 189.48 1245.39 189.86
  L 1245.36 191.01
  Q 1245.34 191.49 1244.86 191.49
  L 1238.27 191.49
  Q 1238.03 191.49 1238.03 191.73
  L 1238.04 197.17
  A 0.39 0.39 0.0 0 0 1238.43 197.56
  L 1244.94 197.51
  Q 1245.37 197.51 1245.37 197.94
  L 1245.36 199.14
  Q 1245.36 199.52 1244.98 199.52
  L 1238.51 199.50
  A 0.48 0.48 0.0 0 0 1238.03 199.99
  L 1238.05 204.97
  A 0.45 0.45 0.0 0 0 1238.50 205.42
  L 1244.76 205.40
  Q 1245.35 205.40 1245.34 205.99
  L 1245.32 209.80
  A 1.50 1.50 0.0 0 0 1246.80 211.31
  L 1250.88 211.34
  Q 1251.42 211.35 1251.41 211.88
  L 1251.39 218.47
  Q 1251.39 218.78 1251.71 218.78
  L 1256.56 218.78
  Q 1256.94 218.78 1256.94 218.41
  L 1256.94 211.94
  Q 1256.94 211.57 1257.31 211.53
  L 1258.78 211.35
  A 0.44 0.43 -3.5 0 1 1259.27 211.78
  L 1259.27 218.41
  Q 1259.27 218.80 1259.66 218.80
  L 1264.56 218.77
  A 0.57 0.57 0.0 0 0 1265.13 218.19
  L 1265.09 212.21
  Q 1265.09 211.50 1265.79 211.40
  L 1266.73 211.26
  Q 1267.28 211.18 1267.28 211.74
  L 1267.29 218.54
  Q 1267.29 218.78 1267.54 218.78
  L 1272.52 218.78
  A 0.35 0.35 0.0 0 0 1272.87 218.43
  L 1272.85 212.05
  Q 1272.85 211.45 1273.45 211.43
  L 1277.48 211.30
  A 1.51 1.50 88.6 0 0 1278.93 209.77
  L 1278.88 206.05
  Q 1278.87 205.48 1279.45 205.47
  L 1285.03 205.38
  Q 1286.66 205.35 1286.67 203.72
  L 1286.69 200.97
  Q 1286.70 199.49 1285.22 199.50
  L 1281.73 199.52
  A 0.27 0.27 0.0 0 1 1281.46 199.23
  L 1281.56 197.91
  Q 1281.58 197.64 1281.84 197.63
  Z
  M 628.73 340.04
  L 628.74 351.75
  A 0.51 0.51 0.0 0 0 629.25 352.26
  L 660.73 352.26
  A 0.51 0.51 0.0 0 0 661.24 351.75
  Q 661.26 306.70 661.24 259.87
  C 661.23 252.71 660.65 245.22 658.01 238.50
  C 652.60 224.75 640.08 218.95 626.03 217.49
  Q 604.47 215.25 583.71 222.97
  Q 583.19 223.17 583.25 223.73
  L 586.41 251.02
  Q 586.55 252.30 587.78 251.91
  C 597.86 248.70 608.03 246.51 618.03 248.55
  Q 626.35 250.25 626.88 259.75
  Q 627.25 266.21 626.98 273.72
  Q 626.96 274.13 626.61 273.92
  Q 615.95 267.43 603.30 268.54
  C 588.28 269.85 578.63 281.66 574.84 295.54
  Q 571.36 308.29 573.43 322.56
  C 574.84 332.25 579.02 342.15 586.55 348.39
  C 600.41 359.87 618.45 352.64 628.12 339.83
  Q 628.73 339.03 628.73 340.04
  Z
  M 1055.13 320.72
  Q 1054.93 320.22 1054.82 319.70
  Q 1054.71 319.14 1054.23 319.45
  Q 1052.26 320.72 1050.50 322.05
  C 1045.09 326.13 1038.20 328.65 1031.09 328.38
  C 1023.17 328.08 1017.71 322.11 1015.33 314.99
  Q 1013.67 310.00 1013.60 303.92
  Q 1013.44 288.58 1020.10 273.84
  C 1024.50 264.12 1031.49 255.42 1041.88 252.20
  Q 1047.96 250.31 1052.66 251.70
  Q 1058.60 253.46 1061.61 258.67
  Q 1061.78 258.97 1062.02 258.72
  Q 1069.45 250.77 1077.10 242.85
  Q 1079.24 240.63 1080.95 238.49
  A 1.05 1.05 0.0 0 0 1080.92 237.15
  Q 1071.31 226.29 1056.96 225.17
  Q 1043.96 224.16 1032.25 228.16
  C 1005.25 237.38 987.26 261.46 981.68 288.86
  Q 979.79 298.15 979.55 306.31
  Q 979.30 314.99 981.48 323.59
  C 987.38 346.91 1007.16 357.14 1030.01 354.72
  Q 1045.79 353.05 1060.21 342.77
  Q 1061.57 341.80 1062.69 340.70
  A 0.70 0.70 0.0 0 0 1062.85 339.93
  Q 1058.87 330.26 1055.13 320.72
  Z
  M 1141.17 337.81
  Q 1141.29 344.47 1140.53 351.72
  A 0.26 0.25 3.0 0 0 1140.79 352.00
  L 1166.24 352.00
  A 0.97 0.96 5.4 0 0 1167.19 351.22
  L 1191.73 228.53
  Q 1191.83 228.00 1191.29 228.00
  L 1159.27 228.00
  Q 1158.73 228.00 1158.63 228.53
  Q 1149.87 272.48 1141.89 312.40
  Q 1141.43 314.69 1140.04 316.63
  Q 1135.64 322.78 1130.84 325.77
  Q 1127.52 327.84 1123.03 327.43
  C 1114.56 326.67 1117.07 315.25 1118.08 310.06
  Q 1125.97 269.75 1134.30 228.63
  Q 1134.43 228.00 1133.78 228.00
  L 1102.03 228.00
  Q 1101.55 228.00 1101.46 228.47
  Q 1092.94 270.89 1084.49 313.46
  Q 1081.88 326.63 1083.44 337.15
  Q 1086.05 354.66 1104.68 355.03
  C 1119.27 355.31 1130.59 347.53 1140.61 337.58
  A 0.33 0.33 0.0 0 1 1141.17 337.81
  Z
  M 1275.11 228.42
  A 0.34 0.34 0.0 0 0 1274.78 228.01
  L 1242.65 227.99
  A 0.34 0.34 0.0 0 0 1242.32 228.26
  L 1217.65 351.60
  A 0.34 0.34 0.0 0 0 1217.98 352.01
  L 1250.12 352.00
  A 0.34 0.34 0.0 0 0 1250.45 351.73
  L 1275.11 228.42
  Z"
/>
<path fill="#ffffff" d="
  M 866.52 352.26
  L 830.15 352.26
  A 0.44 0.44 0.0 0 1 829.73 351.72
  L 877.34 147.18
  A 0.44 0.44 0.0 0 1 877.77 146.84
  L 907.06 146.85
  A 0.44 0.44 0.0 0 1 907.49 147.19
  L 954.66 351.44
  A 0.44 0.44 0.0 0 1 954.23 351.97
  L 917.48 352.29
  A 0.44 0.44 0.0 0 1 917.04 351.94
  L 909.63 318.42
  A 0.44 0.44 0.0 0 0 909.20 318.07
  L 874.79 318.14
  A 0.44 0.44 0.0 0 0 874.36 318.48
  L 866.95 351.92
  A 0.44 0.44 0.0 0 1 866.52 352.26
  Z
  M 881.34 283.58
  A 0.35 0.35 0.0 0 0 881.69 283.99
  L 902.31 283.99
  A 0.35 0.35 0.0 0 0 902.66 283.58
  L 892.34 225.56
  A 0.35 0.35 0.0 0 0 891.66 225.56
  L 881.34 283.58
  Z"
/>
<path fill="#ffffff" d="
  M 779.35 253.00
  Q 779.33 251.86 778.91 252.92
  L 753.94 315.61
  A 0.96 0.95 -79.2 0 1 753.05 316.22
  L 746.56 316.22
  Q 746.11 316.22 745.94 315.81
  L 719.75 253.42
  Q 719.07 251.80 719.04 253.55
  L 717.42 351.80
  Q 717.41 352.26 716.95 352.26
  L 680.71 352.26
  A 0.29 0.29 0.0 0 1 680.42 351.96
  L 685.17 147.78
  Q 685.17 147.49 685.46 147.49
  L 705.02 147.00
  Q 705.66 146.98 705.92 147.57
  L 750.03 246.31
  A 0.32 0.32 0.0 0 0 750.61 246.31
  L 792.78 147.60
  A 0.98 0.98 0.0 0 1 793.71 147.00
  L 812.24 147.45
  A 1.33 1.33 0.0 0 1 813.54 148.75
  L 818.55 351.72
  Q 818.56 352.26 818.03 352.26
  L 781.91 352.26
  Q 781.31 352.26 781.29 351.66
  L 779.35 253.00
  Z"
/>
<path fill="#ffffff" d="
  M 464.78 317.02
  L 464.78 351.89
  A 0.37 0.37 0.0 0 1 464.41 352.26
  L 382.87 352.26
  A 0.37 0.37 0.0 0 1 382.50 351.89
  L 382.50 147.61
  A 0.37 0.37 0.0 0 1 382.87 147.24
  L 420.86 147.24
  A 0.37 0.37 0.0 0 1 421.23 147.61
  L 421.23 316.27
  A 0.37 0.37 0.0 0 0 421.60 316.64
  L 464.41 316.65
  A 0.37 0.37 0.0 0 1 464.78 317.02
  Z"
/>
<path fill="#ffffff" d="
  M 520.18 316.64
  L 563.13 316.65
  A 0.36 0.36 0.0 0 1 563.49 317.01
  L 563.49 351.90
  A 0.36 0.36 0.0 0 1 563.13 352.26
  L 481.57 352.26
  A 0.36 0.36 0.0 0 1 481.21 351.90
  L 481.21 147.60
  A 0.36 0.36 0.0 0 1 481.57 147.24
  L 519.46 147.24
  A 0.36 0.36 0.0 0 1 519.82 147.60
  L 519.82 316.28
  A 0.36 0.36 0.0 0 0 520.18 316.64
  Z"
/>
<path fill="#ff8235" d="
  M 995.03 198.63
  C 999.81 177.86 1012.56 156.81 1036.85 159.20
  A 2.43 2.43 0.0 0 1 1039.05 161.61
  Q 1039.05 165.28 1037.27 168.91
  Q 1032.41 178.81 1027.69 188.47
  C 1022.80 198.50 1026.52 209.73 1032.48 218.20
  A 0.70 0.70 0.0 0 1 1032.11 219.27
  C 1016.24 224.01 1002.56 232.76 991.18 244.78
  A 0.41 0.41 0.0 0 1 990.47 244.50
  C 990.48 229.05 991.48 214.06 995.03 198.63
  Z"
/>
<path fill="#ff8235" d="
  M 1038.03 217.43
  C 1040.56 201.91 1047.72 177.67 1064.33 171.84
  Q 1071.63 169.28 1079.38 171.14
  C 1081.18 171.58 1082.03 173.56 1081.19 175.22
  C 1078.97 179.60 1075.55 184.03 1072.81 187.68
  Q 1068.85 192.97 1068.06 196.31
  C 1066.46 203.12 1069.42 210.33 1072.98 216.26
  A 0.30 0.30 0.0 0 1 1072.68 216.72
  Q 1055.36 214.24 1038.46 217.84
  Q 1037.95 217.95 1038.03 217.43
  Z"
/>
<path fill="#ff8235" d="
  M 1281.84 197.63
  Q 1281.58 197.64 1281.56 197.91
  L 1281.46 199.23
  A 0.27 0.27 0.0 0 0 1281.73 199.52
  L 1285.22 199.50
  Q 1286.70 199.49 1286.69 200.97
  L 1286.67 203.72
  Q 1286.66 205.35 1285.03 205.38
  L 1279.45 205.47
  Q 1278.87 205.48 1278.88 206.05
  L 1278.93 209.77
  A 1.51 1.50 88.6 0 1 1277.48 211.30
  L 1273.45 211.43
  Q 1272.85 211.45 1272.85 212.05
  L 1272.87 218.43
  A 0.35 0.35 0.0 0 1 1272.52 218.78
  L 1267.54 218.78
  Q 1267.29 218.78 1267.29 218.54
  L 1267.28 211.74
  Q 1267.28 211.18 1266.73 211.26
  L 1265.79 211.40
  Q 1265.09 211.50 1265.09 212.21
  L 1265.13 218.19
  A 0.57 0.57 0.0 0 1 1264.56 218.77
  L 1259.66 218.80
  Q 1259.27 218.80 1259.27 218.41
  L 1259.27 211.78
  A 0.44 0.43 -3.5 0 0 1258.78 211.35
  L 1257.31 211.53
  Q 1256.94 211.57 1256.94 211.94
  L 1256.94 218.41
  Q 1256.94 218.78 1256.56 218.78
  L 1251.71 218.78
  Q 1251.39 218.78 1251.39 218.47
  L 1251.41 211.88
  Q 1251.42 211.35 1250.88 211.34
  L 1246.80 211.31
  A 1.50 1.50 0.0 0 1 1245.32 209.80
  L 1245.34 205.99
  Q 1245.35 205.40 1244.76 205.40
  L 1238.50 205.42
  A 0.45 0.45 0.0 0 1 1238.05 204.97
  L 1238.03 199.99
  A 0.48 0.48 0.0 0 1 1238.51 199.50
  L 1244.98 199.52
  Q 1245.36 199.52 1245.36 199.14
  L 1245.37 197.94
  Q 1245.37 197.51 1244.94 197.51
  L 1238.43 197.56
  A 0.39 0.39 0.0 0 1 1238.04 197.17
  L 1238.03 191.73
  Q 1238.03 191.49 1238.27 191.49
  L 1244.86 191.49
  Q 1245.34 191.49 1245.36 191.01
  L 1245.39 189.86
  Q 1245.40 189.48 1245.02 189.48
  L 1238.52 189.50
  Q 1238.04 189.50 1238.04 189.02
  L 1238.02 184.23
  Q 1238.02 183.72 1238.52 183.72
  L 1244.84 183.73
  A 0.53 0.53 0.0 0 0 1245.37 183.19
  C 1245.36 181.09 1244.32 177.52 1247.64 177.47
  Q 1249.29 177.45 1250.92 177.65
  Q 1251.41 177.72 1251.41 177.22
  L 1251.39 170.58
  Q 1251.39 170.23 1251.74 170.22
  L 1256.56 170.19
  A 0.37 0.37 0.0 0 1 1256.93 170.56
  L 1256.96 176.97
  Q 1256.96 177.47 1257.47 177.49
  L 1258.74 177.52
  Q 1259.26 177.54 1259.26 177.01
  L 1259.27 170.72
  Q 1259.27 170.21 1259.78 170.21
  L 1264.53 170.21
  Q 1265.11 170.21 1265.11 170.78
  L 1265.19 176.99
  A 0.56 0.55 89.5 0 0 1265.74 177.54
  L 1266.73 177.56
  Q 1267.28 177.57 1267.28 177.02
  L 1267.29 170.48
  Q 1267.29 170.24 1267.52 170.24
  L 1272.55 170.19
  Q 1272.86 170.18 1272.86 170.49
  L 1272.86 176.83
  Q 1272.86 177.61 1273.63 177.55
  Q 1275.03 177.46 1276.41 177.46
  Q 1279.82 177.46 1278.83 181.61
  Q 1278.33 183.72 1280.49 183.71
  L 1285.32 183.70
  Q 1286.70 183.69 1286.69 185.07
  L 1286.67 187.79
  Q 1286.66 189.49 1284.96 189.50
  L 1279.35 189.52
  Q 1278.96 189.52 1278.94 189.91
  L 1278.88 191.03
  Q 1278.86 191.45 1279.28 191.46
  L 1285.45 191.47
  Q 1286.69 191.47 1286.68 192.71
  L 1286.66 196.27
  Q 1286.66 197.45 1285.48 197.50
  L 1281.84 197.63
  Z
  M 1268.0106 189.0301
  A 0.27 0.27 0.0 0 0 1267.7401 188.7606
  L 1256.9801 188.7794
  A 0.27 0.27 0.0 0 0 1256.7106 189.0499
  L 1256.7294 199.8499
  A 0.27 0.27 0.0 0 0 1256.9999 200.1194
  L 1267.7599 200.1006
  A 0.27 0.27 0.0 0 0 1268.0294 199.8301
  L 1268.0106 189.0301
  Z"
/>
<rect fill="#1b1f20" x="-5.65" y="-5.67" transform="translate(1262.37,194.44) rotate(-0.1)" width="11.30" height="11.34" rx="0.27"/>
<path fill="#ffffff" d="
  M 628.73 340.04
  Q 628.73 339.03 628.12 339.83
  C 618.45 352.64 600.41 359.87 586.55 348.39
  C 579.02 342.15 574.84 332.25 573.43 322.56
  Q 571.36 308.29 574.84 295.54
  C 578.63 281.66 588.28 269.85 603.30 268.54
  Q 615.95 267.43 626.61 273.92
  Q 626.96 274.13 626.98 273.72
  Q 627.25 266.21 626.88 259.75
  Q 626.35 250.25 618.03 248.55
  C 608.03 246.51 597.86 248.70 587.78 251.91
  Q 586.55 252.30 586.41 251.02
  L 583.25 223.73
  Q 583.19 223.17 583.71 222.97
  Q 604.47 215.25 626.03 217.49
  C 640.08 218.95 652.60 224.75 658.01 238.50
  C 660.65 245.22 661.23 252.71 661.24 259.87
  Q 661.26 306.70 661.24 351.75
  A 0.51 0.51 0.0 0 1 660.73 352.26
  L 629.25 352.26
  A 0.51 0.51 0.0 0 1 628.74 351.75
  L 628.73 340.04
  Z
  M 626.62 325.88
  A 0.70 0.69 -11.5 0 0 627.05 325.24
  L 627.05 292.80
  Q 627.05 291.60 625.91 291.19
  Q 620.85 289.37 615.64 290.17
  C 609.18 291.16 606.58 298.34 606.07 304.21
  C 605.36 312.37 605.97 326.93 617.51 327.48
  Q 622.40 327.71 626.62 325.88
  Z"
/>
<path fill="#1b1f20" d="
  M 881.34 283.58
  L 891.66 225.56
  A 0.35 0.35 0.0 0 1 892.34 225.56
  L 902.66 283.58
  A 0.35 0.35 0.0 0 1 902.31 283.99
  L 881.69 283.99
  A 0.35 0.35 0.0 0 1 881.34 283.58
  Z"
/>
<path fill="#ff8235" d="
  M 1055.13 320.72
  Q 1058.87 330.26 1062.85 339.93
  A 0.70 0.70 0.0 0 1 1062.69 340.70
  Q 1061.57 341.80 1060.21 342.77
  Q 1045.79 353.05 1030.01 354.72
  C 1007.16 357.14 987.38 346.91 981.48 323.59
  Q 979.30 314.99 979.55 306.31
  Q 979.79 298.15 981.68 288.86
  C 987.26 261.46 1005.25 237.38 1032.25 228.16
  Q 1043.96 224.16 1056.96 225.17
  Q 1071.31 226.29 1080.92 237.15
  A 1.05 1.05 0.0 0 1 1080.95 238.49
  Q 1079.24 240.63 1077.10 242.85
  Q 1069.45 250.77 1062.02 258.72
  Q 1061.78 258.97 1061.61 258.67
  Q 1058.60 253.46 1052.66 251.70
  Q 1047.96 250.31 1041.88 252.20
  C 1031.49 255.42 1024.50 264.12 1020.10 273.84
  Q 1013.44 288.58 1013.60 303.92
  Q 1013.67 310.00 1015.33 314.99
  C 1017.71 322.11 1023.17 328.08 1031.09 328.38
  C 1038.20 328.65 1045.09 326.13 1050.50 322.05
  Q 1052.26 320.72 1054.23 319.45
  Q 1054.71 319.14 1054.82 319.70
  Q 1054.93 320.22 1055.13 320.72
  Z"
/>
<path fill="#ff8235" d="
  M 1141.17 337.81
  A 0.33 0.33 0.0 0 0 1140.61 337.58
  C 1130.59 347.53 1119.27 355.31 1104.68 355.03
  Q 1086.05 354.66 1083.44 337.15
  Q 1081.88 326.63 1084.49 313.46
  Q 1092.94 270.89 1101.46 228.47
  Q 1101.55 228.00 1102.03 228.00
  L 1133.78 228.00
  Q 1134.43 228.00 1134.30 228.63
  Q 1125.97 269.75 1118.08 310.06
  C 1117.07 315.25 1114.56 326.67 1123.03 327.43
  Q 1127.52 327.84 1130.84 325.77
  Q 1135.64 322.78 1140.04 316.63
  Q 1141.43 314.69 1141.89 312.40
  Q 1149.87 272.48 1158.63 228.53
  Q 1158.73 228.00 1159.27 228.00
  L 1191.29 228.00
  Q 1191.83 228.00 1191.73 228.53
  L 1167.19 351.22
  A 0.97 0.96 5.4 0 1 1166.24 352.00
  L 1140.79 352.00
  A 0.26 0.25 3.0 0 1 1140.53 351.72
  Q 1141.29 344.47 1141.17 337.81
  Z"
/>
<path fill="#ff8235" d="
  M 1275.11 228.42
  L 1250.45 351.73
  A 0.34 0.34 0.0 0 1 1250.12 352.00
  L 1217.98 352.01
  A 0.34 0.34 0.0 0 1 1217.65 351.60
  L 1242.32 228.26
  A 0.34 0.34 0.0 0 1 1242.65 227.99
  L 1274.78 228.01
  A 0.34 0.34 0.0 0 1 1275.11 228.42
  Z"
/>
<path fill="#1b1f20" d="
  M 626.62 325.88
  Q 622.40 327.71 617.51 327.48
  C 605.97 326.93 605.36 312.37 606.07 304.21
  C 606.58 298.34 609.18 291.16 615.64 290.17
  Q 620.85 289.37 625.91 291.19
  Q 627.05 291.60 627.05 292.80
  L 627.05 325.24
  A 0.70 0.69 -11.5 0 1 626.62 325.88
  Z"
/>
</svg>
