<?xml version="1.0" encoding="UTF-8" standalone="no"?>
<!-- Uploaded to: SVG Repo, www.svgrepo.com, Generator: SVG Repo Mixer Tools -->

<svg
   width="800px"
   height="800px"
   viewBox="0 0 32 32"
   id="svg5"
   version="1.1"
   sodipodi:docname="Database.svg"
   inkscape:version="1.1.2 (0a00cf5339, 2022-02-04)"
   xmlns:inkscape="http://www.inkscape.org/namespaces/inkscape"
   xmlns:sodipodi="http://sodipodi.sourceforge.net/DTD/sodipodi-0.dtd"
   xmlns="http://www.w3.org/2000/svg"
   xmlns:svg="http://www.w3.org/2000/svg">
  <sodipodi:namedview
     id="namedview10"
     pagecolor="#ffffff"
     bordercolor="#666666"
     borderopacity="1.0"
     inkscape:pageshadow="2"
     inkscape:pageopacity="0.0"
     inkscape:pagecheckerboard="0"
     showgrid="false"
     inkscape:zoom="0.5275"
     inkscape:cx="220.85308"
     inkscape:cy="234.12322"
     inkscape:window-width="1870"
     inkscape:window-height="1016"
     inkscape:window-x="50"
     inkscape:window-y="27"
     inkscape:window-maximized="1"
     inkscape:current-layer="layer1"
     inkscape:snap-text-baseline="true" />
  <defs
     id="defs2" />
  <g
     id="layer1"
     transform="translate(-300,-436)">
    <path
       d="m 307,458.01367 a 1,1 0 0 0 -1,1 1,1 0 0 0 1,1 h 4 a 1,1 0 0 0 1,-1 1,1 0 0 0 -1,-1 z"
       id="path453687"
       style="color:#000000;fill:#000000;fill-rule:evenodd;stroke-linecap:round;stroke-linejoin:round;stroke-miterlimit:4.1;-inkscape-stroke:none" />
    <path
       id="path453663"
       style="color:#000000;fill:#ffffff;fill-rule:evenodd;stroke-width:25;stroke-linecap:round;stroke-linejoin:round;stroke-miterlimit:4.1;-inkscape-stroke:none"
       transform="matrix(0.04,0,0,0.04,300,436)"
       d="m 574.99609,475.33594 0.004,0.006 a 25,25 0 0 0 -1.26953,0.15039 25.0025,25.0025 0 0 0 -2.97852,0.34179 25,25 0 0 0 -2.63672,0.63477 25.0025,25.0025 0 0 0 -2.58789,0.88086 25,25 0 0 0 -2.63672,1.26953 25.0025,25.0025 0 0 0 -2.24609,1.41602 25,25 0 0 0 -2.14648,1.70898 25.0025,25.0025 0 0 0 -1.17383,0.92774 l -7.07813,7.07812 c 4.59396,-0.25672 9.22966,-0.035 13.81446,0.70703 4.68657,-2.47687 9.93646,-4.06043 15.85937,-4.5625 0.76636,-0.0649 1.54219,-0.10354 2.32031,-0.10937 2.33437,-0.0175 4.68941,0.26367 6.86329,1.03711 2.06706,0.73539 3.82302,2.09923 5.58984,3.44335 0.65704,0.13095 1.32856,0.28471 2.01758,0.4629 2.16073,0.55876 4.25491,1.36861 6.30859,2.28125 l -9.61133,-9.61133 a 25,25 0 0 0 -10.15625,-6.64063 25.0025,25.0025 0 0 0 -0.0508,0 25.0025,25.0025 0 0 0 -0.0996,-0.0508 25,25 0 0 0 -4.98047,-1.12109 25.0025,25.0025 0 0 0 -0.68164,-0.10156 25,25 0 0 0 -2.44336,-0.14844 z m -29.22265,21.36914 c -0.59518,0.084 -1.18718,0.17812 -1.77735,0.2832 -0.41894,0.0746 -0.83454,0.17536 -1.25195,0.26367 l -1.56445,1.56446 c 1.67726,-0.78941 3.2805,-1.55064 4.59375,-2.11133 z m 9.93164,17.49023 c -0.85586,0.24733 -1.71077,0.49999 -2.57031,0.72852 -0.62403,0.67687 -1.23369,1.37608 -1.8418,2.07617 0.0304,-0.008 0.0555,-0.0119 0.0859,-0.0195 0.20355,-0.0154 0.40653,-0.0325 0.60937,-0.0488 1.22071,-0.92902 2.47197,-1.82994 3.7168,-2.73633 z m -30.28711,3.20703 c -1.5054,1.49938 -2.91603,3.07896 -4.11328,4.83204 -3.43363,5.0277 -5.72056,10.82434 -7.53907,16.63476 -1.47116,4.70075 -2.39773,8.97354 -2.9375,13.13477 1.4613,-1.834 3.03853,-3.41092 4.70704,-4.78516 0.95767,-4.74253 2.55448,-9.31249 5.12304,-13.49414 0.43269,-1.13968 0.90106,-2.26538 1.41211,-3.36914 0.20231,-2.93643 0.65786,-5.84604 1.51758,-8.67774 0.45152,-1.48707 1.10666,-2.89525 1.83008,-4.27539 z m 73.72656,3.97071 c -0.0362,0.0492 -0.0681,0.1022 -0.10351,0.15234 0.19422,0.13816 0.39451,0.2684 0.58593,0.41016 -0.12354,-0.16092 -0.24758,-0.32155 -0.37304,-0.48047 -0.0363,-0.0274 -0.073,-0.0547 -0.10938,-0.082 z m -89.30078,8.77929 -0.79297,0.79297 c -0.59923,1.66176 -1.14383,3.34038 -1.54297,5.0625 -0.17426,0.75179 -0.33176,1.49461 -0.47656,2.23047 0.78486,-2.75329 1.75297,-5.44698 2.8125,-8.08594 z m 130.55859,0.24024 c 0.27323,0.49336 0.57538,0.98202 0.83789,1.47656 0.40186,0.6138 0.8134,1.24693 1.26758,1.92969 0.28691,0.70679 1.4725,2.97894 1.93946,4.9414 0.1845,0.45741 0.36394,0.91632 0.54101,1.37696 0.28446,-0.0785 0.569,-0.15644 0.85547,-0.22266 0.81248,0.54679 1.66236,1.04608 2.49414,1.56836 a 25,25 0 0 0 -5.66211,-8.79687 z M 588.5,555.85547 c -0.89577,0.0663 -1.79259,0.12347 -2.6875,0.19726 0.30666,0.2076 0.59975,0.43053 0.875,0.67383 0.62127,-0.29938 1.23196,-0.59201 1.8125,-0.87109 z m 49.00977,0.8457 c 0.0478,0.75866 0.0381,1.50924 0.0508,2.26367 0.62103,1.08632 1.2453,2.16133 1.85351,3.27149 -0.54479,-1.87286 -1.17458,-3.727 -1.90429,-5.53516 z m -28.96094,9.62695 c -0.48042,0.49489 -0.93066,1.0108 -1.40235,1.51172 l 0.17774,0.17774 a 25,25 0 0 0 0.16211,0.12304 c 0.36724,-0.59948 0.7271,-1.20247 1.0625,-1.8125 z m -21.14844,2.5625 c -0.41757,0.0709 -0.83755,0.13008 -1.25586,0.19922 -0.52082,0.33814 -1.13655,0.7377 -1.68164,1.0918 0.98646,-0.4082 1.97532,-0.807 2.9375,-1.29102 z m -8,2.5 c -0.0151,0.15488 0.0225,0.33336 0.0918,0.5625 0.16024,-0.0473 0.31147,-0.10775 0.4707,-0.15624 -0.19185,-0.12586 -0.22914,-0.15611 -0.5625,-0.40626 z M 600,573.49023 c -9.49912,6.60268 -14.7956,10.36801 -24.28711,15.37891 8e-5,0.36369 0.0293,0.54231 0.0195,0.97266 3.31254,-0.48196 6.6292,-1.23666 9.96875,-2.32422 2.50136,-0.8146 4.87556,-1.9375 7.20508,-3.16992 2.49532,-2.06698 4.87923,-4.28919 7.09375,-6.62891 z m -20.7168,5.62891 c -1.952,0.52673 -3.90724,0.93225 -5.86914,1.25195 0.26652,0.51687 0.51682,1.06395 0.75391,1.63282 1.751,-0.96191 3.44928,-1.91485 5.11523,-2.88477 z m 11.35157,23.11133 c -2.99987,0.56949 -6.0127,1.04161 -9.05079,1.32422 0.7173,0.22264 1.4019,0.4622 2.01954,0.74023 1.23394,-0.2726 2.46721,-0.54961 3.68164,-0.90039 1.1375,-0.32856 2.25157,-0.72525 3.34961,-1.16406 z m 8.91796,8.5293 c -1.24841,0.41293 -2.50549,0.80366 -3.76562,1.18554 1.09034,-0.24429 2.18078,-0.46885 3.26953,-0.75195 0.16687,-0.14377 0.33126,-0.28882 0.49609,-0.43359 z M 600,643.46289 c -5.32205,0.0687 -10.61474,0.5414 -15.82812,1.95703 -4.39562,-0.23434 -6.39436,-0.0305 -8.5293,-0.63281 -3.81725,0.73177 -7.75812,1.08023 -11.79883,0.98242 4.48745,1.06457 9.88686,1.68426 15.49805,1.9668 2.51014,-0.0727 4.91739,-0.23772 7.05664,-0.51563 4.63921,-0.60264 9.111,-2.06394 13.60156,-3.42968 z m -50,5.92383 v 0.95508 a 25,25 0 0 0 1.74609,8.63281 c 3.96767,2.98014 8.36042,5.38992 13.19727,7.12891 3.98067,1.43107 8.2189,2.00771 12.32812,3.01171 7.92628,0.26811 10.25469,0.50524 13.58204,0.30469 a 25,25 0 0 0 8.65625,-15.34961 c -5.19498,0.49038 -10.42619,0.66878 -15.63282,0.51758 -1.60377,-0.0466 -3.16514,-0.11042 -4.6914,-0.19336 -9.7172,0.25781 -20.6027,-1.10038 -29.18555,-5.00781 z m 15.41016,23.81055 a 25,25 0 0 0 8.30859,1.97656 c -2.7735,-0.64571 -5.56945,-1.22129 -8.30859,-1.97656 z" />
    <path
       d="m 307,450.01367 a 1,1 0 0 0 -1,1 1,1 0 0 0 1,1 h 4 a 1,1 0 0 0 1,-1 1,1 0 0 0 -1,-1 z"
       id="path453649"
       style="color:#000000;fill:#000000;fill-rule:evenodd;stroke-linecap:round;stroke-linejoin:round;stroke-miterlimit:4.1;-inkscape-stroke:none" />
    <path
       d="m 307,442.01367 a 1,1 0 0 0 -1,1 1,1 0 0 0 1,1 h 4 a 1,1 0 0 0 1,-1 1,1 0 0 0 -1,-1 z"
       id="path453625"
       style="color:#000000;fill:#000000;fill-rule:evenodd;stroke-linecap:round;stroke-linejoin:round;stroke-miterlimit:4.1;-inkscape-stroke:none" />
    <path
       id="path453607"
       style="color:#000000;fill:#000000;fill-rule:evenodd;stroke-width:25;stroke-linecap:round;stroke-linejoin:round;stroke-miterlimit:4.1;-inkscape-stroke:none"
       transform="matrix(0.04,0,0,0.04,300,436)"
       d="m 125,50.341797 c -41.1175,0 -75,33.882491 -75,75.000003 v 100 c 0,19.157 7.418844,36.679 19.433594,50 C 57.418844,288.6628 50,306.1848 50,325.3418 v 100 c 0,19.157 7.418844,36.679 19.433594,50 C 57.418844,488.6628 50,506.1848 50,525.3418 v 100 c 0,41.1175 33.8825,75 75,75 h 327.7832 c 31.58775,30.89475 74.7433,50 122.2168,50 96.3535,0 175,-78.64625 175,-175 0,-69.54025 -40.97825,-129.87189 -100,-158.05664 V 325.3418 c 0,-19.157 -7.41884,-36.679 -19.43359,-50 12.01475,-13.321 19.43359,-30.843 19.43359,-50 v -100 C 650,84.224288 616.1175,50.341797 575,50.341797 Z m 0,50.000003 h 450 c 14.2825,0 25,10.71775 25,25 v 100 c 0,14.2825 -10.7175,25 -25,25 H 125 c -14.2825,0 -25,-10.7175 -25,-25 v -100 c 0,-14.28225 10.7175,-25 25,-25 z m 0,200 h 450 c 14.2825,0 25,10.71775 25,25 v 76.80664 c -8.17775,-1.18 -16.50525,-1.80664 -25,-1.80664 -47.4735,0 -90.62905,19.10525 -122.2168,50 H 125 c -14.2825,0 -25,-10.7175 -25,-25 v -100 c 0,-14.28225 10.7175,-25 25,-25 z m 450,150 h 0.002 c 69.33084,0.001 124.99805,55.66915 124.99805,125 0,69.33175 -55.66825,125 -125,125 -36.0185,0 -68.3107,-15.04999 -91.06445,-39.20899 a 25,25 0 0 0 -4.19922,-4.63867 C 461.18193,634.69864 450,606.38905 450,575.3418 c 0,-31.409 11.47517,-59.98952 30.41992,-81.88477 a 25,25 0 0 0 1.61328,-1.9043 C 504.86705,466.20468 537.98054,450.34236 575,450.3418 Z m -450,50 H 416.94336 C 406.07611,523.0993 400,548.52855 400,575.3418 c 0,26.81325 6.07611,52.2425 16.94336,75 H 125 c -14.2825,0 -25,-10.7175 -25,-25 v -100 c 0,-14.28225 10.7175,-25 25,-25 z" />
    <text
       xml:space="preserve"
       style="font-size:7.68px;line-height:1.25;font-family:Dyuthi;letter-spacing:0px;word-spacing:0px;stroke-width:0.04;-inkscape-font-specification:Dyuthi;font-weight:normal;font-style:normal;font-stretch:normal;font-variant:normal"
       x="319.95819"
       y="461.47495"
       id="text3088"><tspan
         sodipodi:role="line"
         id="tspan3086"
         style="stroke-width:0.04;-inkscape-font-specification:Dyuthi;font-family:Dyuthi;font-weight:normal;font-style:normal;font-stretch:normal;font-variant:normal"
         x="319.95819"
         y="461.47495">M</tspan></text>
  </g>
</svg>
