<?xml version="1.0" encoding="UTF-8"?>
<!DOCTYPE svg PUBLIC "-//W3C//DTD SVG 1.1//EN" "http://www.w3.org/Graphics/SVG/1.1/DTD/svg11.dtd">
<svg xmlns="http://www.w3.org/2000/svg" version="1.1" width="914px" height="211px" style="shape-rendering:geometricPrecision; text-rendering:geometricPrecision; image-rendering:optimizeQuality; fill-rule:evenodd; clip-rule:evenodd" xmlns:xlink="http://www.w3.org/1999/xlink">
<g><path style="opacity:0.955" fill="#fefefe" d="M 558.5,128.5 C 557.876,128.917 557.543,129.584 557.5,130.5C 562.904,155.445 568.904,180.112 575.5,204.5C 576.341,206.379 576.675,208.379 576.5,210.5C 563.167,210.5 549.833,210.5 536.5,210.5C 533.815,199.917 531.315,189.251 529,178.5C 518,177.167 507,177.167 496,178.5C 493.685,189.251 491.185,199.917 488.5,210.5C 475.5,210.5 462.5,210.5 449.5,210.5C 451.692,196.395 454.525,182.395 458,168.5C 470.666,113.158 483.833,57.9911 497.5,3C 508.077,2.18089 518.577,2.34756 529,3.5C 539,45.1646 548.833,86.8313 558.5,128.5 Z M 511.5,93.5 C 513.13,95.0261 513.963,97.0261 514,99.5C 516.602,113.112 518.769,126.779 520.5,140.5C 514.648,140.949 508.981,140.449 503.5,139C 506.864,123.984 509.531,108.818 511.5,93.5 Z"/></g>
<g><path style="opacity:0.904" fill="#fefefe" d="M 86.5,210.5 C 58.1667,210.5 29.8333,210.5 1.5,210.5C 1.33334,141.833 1.5,73.1659 2,4.5C 8.75635,3.84214 15.5897,3.5088 22.5,3.5C 29.4103,3.5088 36.2437,3.84214 43,4.5C 43.3333,60.1667 43.6667,115.833 44,171.5C 57.7585,172.324 71.5918,172.824 85.5,173C 86.4888,185.42 86.8221,197.92 86.5,210.5 Z"/></g>
<g><path style="opacity:1" fill="#fefffe" d="M 185.5,210.5 C 157.167,210.5 128.833,210.5 100.5,210.5C 100.333,141.833 100.5,73.1659 101,4.5C 107.589,3.84237 114.256,3.50904 121,3.5C 127.744,3.50904 134.411,3.84237 141,4.5C 141.333,60.1667 141.667,115.833 142,171.5C 156.092,172.324 170.259,172.824 184.5,173C 185.489,185.42 185.822,197.92 185.5,210.5 Z"/></g>
<g><path style="opacity:1" fill="#fefffe" d="M 440.5,210.5 C 427.167,210.5 413.833,210.5 400.5,210.5C 400.013,179.824 399.18,149.158 398,118.5C 390.83,137.665 382.997,156.498 374.5,175C 371.007,176.004 367.841,175.504 365,173.5C 357,154.833 349,136.167 341,117.5C 340.26,148.497 339.76,179.497 339.5,210.5C 326.167,210.5 312.833,210.5 299.5,210.5C 300.845,141.816 302.679,73.1492 305,4.5C 312.086,3.35441 319.253,3.18775 326.5,4C 327.333,4.83333 328.167,5.66667 329,6.5C 342.743,37.6492 356.743,68.6492 371,99.5C 384.391,67.7169 398.058,36.0503 412,4.5C 419.667,3.16667 427.333,3.16667 435,4.5C 437.101,73.1608 438.935,141.827 440.5,210.5 Z"/></g>
<g><path style="opacity:0.822" fill="#ff8235" d="M 650.5,14.5 C 653.607,14.3512 656.607,14.8512 659.5,16C 660.817,20.1748 660.651,24.3415 659,28.5C 655.061,36.0451 651.394,43.7118 648,51.5C 647.333,54.5 647.333,57.5 648,60.5C 650.351,66.169 652.351,71.8357 654,77.5C 638.653,82.7506 625.153,90.9173 613.5,102C 612.5,102.667 611.5,102.667 610.5,102C 608.618,81.668 611.118,61.8347 618,42.5C 623.889,27.0901 634.723,17.7567 650.5,14.5 Z"/></g>
<g><path style="opacity:0.779" fill="#ff8235" d="M 686.5,26.5 C 691.179,26.3342 695.845,26.5008 700.5,27C 702.357,28.1824 703.357,29.849 703.5,32C 698.633,39.5596 694.133,47.3929 690,55.5C 689.613,60.9497 690.946,65.9497 694,70.5C 694.667,71.8333 694.667,73.1667 694,74.5C 682.208,74.3791 670.374,74.8791 658.5,76C 658.118,57.4216 665.118,42.0883 679.5,30C 681.925,28.7874 684.259,27.6207 686.5,26.5 Z"/></g>
<g><path style="opacity:0.995" fill="#fe8135" d="M 872.5,28.5 C 874.167,28.5 875.833,28.5 877.5,28.5C 877.5,30.8333 877.5,33.1667 877.5,35.5C 878.5,35.5 879.5,35.5 880.5,35.5C 880.5,33.1667 880.5,30.8333 880.5,28.5C 882.167,28.5 883.833,28.5 885.5,28.5C 885.5,30.8333 885.5,33.1667 885.5,35.5C 886.5,35.5 887.5,35.5 888.5,35.5C 888.5,33.1667 888.5,30.8333 888.5,28.5C 890.167,28.5 891.833,28.5 893.5,28.5C 892.094,33.9313 894.094,36.2647 899.5,35.5C 899.5,37.5 899.5,39.5 899.5,41.5C 901.833,41.5 904.167,41.5 906.5,41.5C 906.5,43.1667 906.5,44.8333 906.5,46.5C 904.167,46.5 901.833,46.5 899.5,46.5C 899.5,47.5 899.5,48.5 899.5,49.5C 901.833,49.5 904.167,49.5 906.5,49.5C 906.5,51.1667 906.5,52.8333 906.5,54.5C 904.167,54.5 901.833,54.5 899.5,54.5C 899.5,55.5 899.5,56.5 899.5,57.5C 901.833,57.5 904.167,57.5 906.5,57.5C 906.5,59.1667 906.5,60.8333 906.5,62.5C 904.167,62.5 901.833,62.5 899.5,62.5C 899.5,64.5 899.5,66.5 899.5,68.5C 897.5,68.5 895.5,68.5 893.5,68.5C 893.5,70.8333 893.5,73.1667 893.5,75.5C 891.833,75.5 890.167,75.5 888.5,75.5C 888.5,73.1667 888.5,70.8333 888.5,68.5C 887.5,68.5 886.5,68.5 885.5,68.5C 885.5,70.8333 885.5,73.1667 885.5,75.5C 883.833,75.5 882.167,75.5 880.5,75.5C 880.5,73.1667 880.5,70.8333 880.5,68.5C 879.5,68.5 878.5,68.5 877.5,68.5C 877.5,70.8333 877.5,73.1667 877.5,75.5C 875.833,75.5 874.167,75.5 872.5,75.5C 873.906,70.0687 871.906,67.7353 866.5,68.5C 866.5,66.5 866.5,64.5 866.5,62.5C 864.167,62.5 861.833,62.5 859.5,62.5C 859.5,60.8333 859.5,59.1667 859.5,57.5C 861.833,57.5 864.167,57.5 866.5,57.5C 866.5,56.5 866.5,55.5 866.5,54.5C 864.167,54.5 861.833,54.5 859.5,54.5C 859.5,52.8333 859.5,51.1667 859.5,49.5C 861.833,49.5 864.167,49.5 866.5,49.5C 866.5,48.5 866.5,47.5 866.5,46.5C 864.167,46.5 861.833,46.5 859.5,46.5C 859.5,44.8333 859.5,43.1667 859.5,41.5C 861.833,41.5 864.167,41.5 866.5,41.5C 866.5,39.5 866.5,37.5 866.5,35.5C 871.906,36.2647 873.906,33.9313 872.5,28.5 Z M 871.5,40.5 C 879.167,40.5 886.833,40.5 894.5,40.5C 894.5,48.1667 894.5,55.8333 894.5,63.5C 886.833,63.5 879.167,63.5 871.5,63.5C 871.5,55.8333 871.5,48.1667 871.5,40.5 Z M 876.5,45.5 C 880.833,45.5 885.167,45.5 889.5,45.5C 889.5,49.8333 889.5,54.1667 889.5,58.5C 885.167,58.5 880.833,58.5 876.5,58.5C 876.5,54.1667 876.5,49.8333 876.5,45.5 Z"/></g>
<g><path style="opacity:1" fill="#fe8234" d="M 873.5,42.5 C 879.833,42.5 886.167,42.5 892.5,42.5C 892.5,48.8333 892.5,55.1667 892.5,61.5C 886.167,61.5 879.833,61.5 873.5,61.5C 873.5,55.1667 873.5,48.8333 873.5,42.5 Z M 876.5,45.5 C 876.5,49.8333 876.5,54.1667 876.5,58.5C 880.833,58.5 885.167,58.5 889.5,58.5C 889.5,54.1667 889.5,49.8333 889.5,45.5C 885.167,45.5 880.833,45.5 876.5,45.5 Z"/></g>
<g><path style="opacity:1" fill="#fefffe" d="M 283.5,210.5 C 271.5,210.5 259.5,210.5 247.5,210.5C 247.813,207.753 247.48,205.086 246.5,202.5C 242.835,204.841 239.501,207.507 236.5,210.5C 227.833,210.5 219.167,210.5 210.5,210.5C 197.081,200.295 190.748,186.628 191.5,169.5C 190.811,150.996 198.145,136.829 213.5,127C 224.37,123.372 235.037,123.872 245.5,128.5C 247.053,122.25 246.386,116.25 243.5,110.5C 239.443,107.851 234.943,106.517 230,106.5C 222.115,107.769 214.282,108.936 206.5,110C 204.165,100.321 202.999,90.488 203,80.5C 207.349,77.5318 212.182,75.6985 217.5,75C 228.456,73.4832 239.456,73.1498 250.5,74C 263.86,75.6835 273.693,82.5168 280,94.5C 281.787,100.366 282.787,106.366 283,112.5C 283.5,145.165 283.667,177.832 283.5,210.5 Z M 234.5,149.5 C 238.24,149.241 241.906,149.574 245.5,150.5C 246.666,160.817 246.832,171.151 246,181.5C 237.839,185.254 232.173,182.92 229,174.5C 227.056,166.488 228.056,158.822 232,151.5C 232.995,150.934 233.828,150.267 234.5,149.5 Z"/></g>
<g><path style="opacity:0.87" fill="#fe8134" d="M 666.5,210.5 C 651.833,210.5 637.167,210.5 622.5,210.5C 603.304,198.09 595.47,180.424 599,157.5C 602.255,122.264 620.088,97.7639 652.5,84C 665.975,80.3692 679.308,80.7026 692.5,85C 695.965,87.4626 699.131,90.2959 702,93.5C 702.667,94.8333 702.667,96.1667 702,97.5C 695.82,103.38 689.986,109.547 684.5,116C 683.167,116.667 681.833,116.667 680.5,116C 674.782,110.355 668.115,109.021 660.5,112C 650.815,116.689 644.315,124.189 641,134.5C 635.213,147.186 634.213,160.186 638,173.5C 641.658,182.081 648.158,185.581 657.5,184C 663.262,182.284 668.595,179.784 673.5,176.5C 675.383,176.876 676.883,177.876 678,179.5C 680.196,184.42 682.196,189.42 684,194.5C 684.667,196.167 684.667,197.833 684,199.5C 678.491,203.83 672.657,207.496 666.5,210.5 Z"/></g>
<g><path style="opacity:0.878" fill="#fe8134" d="M 788.5,210.5 C 779.167,210.5 769.833,210.5 760.5,210.5C 759.794,206.496 759.461,202.496 759.5,198.5C 754.613,202.76 749.613,206.76 744.5,210.5C 733.167,210.5 721.833,210.5 710.5,210.5C 704.079,204.083 701.079,196.25 701.5,187C 706.637,152.648 713.304,118.648 721.5,85C 732.5,84.3333 743.5,84.3333 754.5,85C 755.108,86.231 755.441,87.5643 755.5,89C 750.048,118.048 744.381,147.048 738.5,176C 738.72,180.314 740.887,182.814 745,183.5C 752.076,182.091 757.076,178.091 760,171.5C 766,142.833 772,114.167 778,85.5C 789.667,84.1667 801.333,84.1667 813,85.5C 805.799,127.337 797.633,169.003 788.5,210.5 Z"/></g>
<g><path style="opacity:0.865" fill="#fe8234" d="M 871.5,210.5 C 860.5,210.5 849.5,210.5 838.5,210.5C 837.431,207.592 837.264,204.592 838,201.5C 845.667,163.167 853.333,124.833 861,86.5C 861.5,86 862,85.5 862.5,85C 873.5,84.3333 884.5,84.3333 895.5,85C 896.097,86.0617 896.43,87.2284 896.5,88.5C 888.67,129.32 880.336,169.987 871.5,210.5 Z"/></g>
<g><path style="opacity:0.025" fill="#f1f1f1" d="M 558.5,128.5 C 564.167,153.835 569.834,179.168 575.5,204.5C 568.904,180.112 562.904,155.445 557.5,130.5C 557.543,129.584 557.876,128.917 558.5,128.5 Z"/></g>
</svg>
