<?xml version="1.0" standalone="no"?>
<!DOCTYPE svg PUBLIC "-//W3C//DTD SVG 20010904//EN"
 "http://www.w3.org/TR/2001/REC-SVG-20010904/DTD/svg10.dtd">
<svg version="1.0" xmlns="http://www.w3.org/2000/svg"
 width="192.000000pt" height="192.000000pt" viewBox="0 0 192.000000 192.000000"
 preserveAspectRatio="xMidYMid meet">
<metadata>
Created by potrace 1.14, written by Peter Selinger 2001-2017
</metadata>
<g transform="translate(0.000000,192.000000) scale(0.100000,-0.100000)"
fill="#000000" stroke="none">
<path d="M540 1770 l0 -150 -95 0 c-88 0 -98 -2 -120 -25 -23 -22 -25 -32 -25
-120 l0 -95 -150 0 -150 0 0 -100 0 -100 150 0 150 0 0 -59 0 -59 -150 2 -150
1 0 -105 0 -105 150 2 150 1 0 -59 0 -60 -147 2 -148 1 -3 -101 -3 -101 151 0
150 0 0 -95 c0 -88 2 -98 25 -120 22 -23 32 -25 120 -25 l95 0 0 -150 0 -150
100 0 100 0 0 150 0 150 59 0 58 0 1 -138 c0 -75 1 -143 1 -149 1 -18 201 -18
202 0 1 6 1 74 1 150 l0 137 59 0 59 0 0 -150 0 -150 100 0 100 0 0 150 0 150
95 0 c88 0 98 2 120 25 23 22 25 32 25 120 l0 95 150 0 150 0 0 100 0 100
-150 0 -150 0 0 59 0 59 150 -2 150 -1 0 103 c0 99 -1 102 -22 103 -13 0 -80
1 -150 1 l-128 0 0 59 0 59 150 0 150 0 0 100 0 100 -150 0 -150 0 0 95 c0 88
-2 98 -25 120 -22 23 -32 25 -120 25 l-95 0 0 150 0 150 -100 0 -100 0 0 -150
0 -150 -59 0 -58 0 -1 138 c0 75 -1 143 -1 150 -1 9 -28 12 -101 12 -73 0
-100 -3 -101 -12 -1 -7 -1 -75 -1 -150 l0 -138 -59 0 -59 0 0 150 0 150 -100
0 -100 0 0 -150z m875 -810 l0 -455 -455 0 -455 0 -2 449 c-1 248 0 453 3 457
2 4 208 7 457 6 l452 -2 0 -455z"/>
<path d="M624 1362 c-68 -7 -67 -2 -67 -403 0 -352 0 -361 21 -381 20 -21 29
-21 382 -21 353 0 362 0 382 21 20 20 21 29 21 382 0 352 -1 362 -21 382 -20
20 -31 21 -354 22 -183 1 -347 0 -364 -2z m566 -402 l0 -230 -230 0 -230 0 0
230 0 230 230 0 230 0 0 -230z"/>
</g>
</svg>
