<?xml version="1.0" encoding="UTF-8" standalone="no"?>
<!-- Uploaded to: SVG Repo, www.svgrepo.com, Generator: SVG Repo Mixer Tools -->

<svg
   width="800px"
   height="800px"
   viewBox="0 0 24 24"
   fill="none"
   version="1.1"
   id="svg4"
   sodipodi:docname="trash.svg"
   inkscape:version="1.1.2 (0a00cf5339, 2022-02-04)"
   xmlns:inkscape="http://www.inkscape.org/namespaces/inkscape"
   xmlns:sodipodi="http://sodipodi.sourceforge.net/DTD/sodipodi-0.dtd"
   xmlns="http://www.w3.org/2000/svg"
   xmlns:svg="http://www.w3.org/2000/svg">
  <defs
     id="defs8" />
  <sodipodi:namedview
     id="namedview6"
     pagecolor="#ffffff"
     bordercolor="#666666"
     borderopacity="1.0"
     inkscape:pageshadow="2"
     inkscape:pageopacity="0.0"
     inkscape:pagecheckerboard="0"
     showgrid="false"
     inkscape:zoom="1.055"
     inkscape:cx="399.52607"
     inkscape:cy="362.08531"
     inkscape:window-width="1600"
     inkscape:window-height="863"
     inkscape:window-x="1920"
     inkscape:window-y="0"
     inkscape:window-maximized="1"
     inkscape:current-layer="svg4" />
  <path
     d="m 6,7 v 11 c 0,1.1046 0.89543,2 2,2 h 8 c 1.1046,0 2,-0.8954 2,-2 V 7 M 6,7 H 5 m 1,0 h 2 m 10,0 h 1 m -1,0 h -2 m -7.0890731,4 0.064286,5.184657 m 6.4366941,-5.392179 0.07099,5.320131 M 8,7 V 5 C 8,3.89543 8.89543,3 10,3 h 4 c 1.1046,0 2,0.89543 2,2 V 7 M 8,7 h 8 m -3.822941,3.959347 0.06429,5.184657"
     stroke="#000000"
     stroke-width="2"
     stroke-linecap="round"
     stroke-linejoin="round"
     id="path2"
     sodipodi:nodetypes="cssssccccccccccccccssssccccc" />
</svg>
